<?xml version="1.0" encoding="utf-8"?>
<svg version="1.1" xmlns:xlink="http://www.w3.org/1999/xlink" width="52px" height="51px" xmlns="http://www.w3.org/2000/svg">
  <g transform="matrix(1 0 0 1 -812 -115 )">
    <path d="M 12.94921875 3.419921875  C 16.9327256944444 1.13997395833333  21.2829861111111 0  26 0  C 30.7170138888889 0  35.0672743055556 1.13997395833333  39.05078125 3.419921875  C 43.0342881944444 5.69986979166666  46.1883680555556 8.79329427083333  48.5130208333333 12.7001953125  C 50.8376736111111 16.6070963541667  52 20.8736979166667  52 25.5  C 52 30.1263020833333  50.8376736111111 34.3929036458333  48.5130208333333 38.2998046875  C 46.1883680555556 42.2067057291667  43.0342881944444 45.3001302083333  39.05078125 47.580078125  C 35.0672743055556 49.8600260416667  30.7170138888889 51  26 51  C 21.2829861111111 51  16.9327256944444 49.8600260416667  12.94921875 47.580078125  C 8.96571180555556 45.3001302083333  5.81163194444444 42.2067057291667  3.48697916666667 38.2998046875  C 1.16232638888889 34.3929036458333  0 30.1263020833333  0 25.5  C 0 20.8736979166667  1.16232638888889 16.6070963541667  3.48697916666667 12.7001953125  C 5.81163194444444 8.79329427083333  8.96571180555556 5.69986979166666  12.94921875 3.419921875  Z M 36.7317708333333 16.900390625  C 36.3480902777778 16.7897135416667  35.8628472222222 16.9225260416667  35.2760416666667 17.298828125  C 35.2309027777778 17.3209635416667  35.1236979166667 17.4261067708333  34.9544270833333 17.6142578125  C 34.78515625 17.8024088541667  34.6328125 17.9075520833333  34.4973958333333 17.9296875  C 34.5425347222222 17.9296875  34.5933159722222 17.8743489583333  34.6497395833333 17.763671875  C 34.7061631944444 17.6529947916667  34.7625868055556 17.53125  34.8190104166667 17.3984375  C 34.8754340277778 17.265625  34.9149305555556 17.1881510416667  34.9375 17.166015625  C 35.0729166666667 17.0110677083333  35.3211805555556 16.8450520833333  35.6822916666667 16.66796875  C 35.9982638888889 16.53515625  36.5850694444444 16.40234375  37.4427083333333 16.26953125  C 38.2100694444444 16.0924479166667  38.7855902777778 16.2141927083333  39.1692708333333 16.634765625  C 39.1241319444444 16.5904947916667  39.2313368055556 16.4466145833333  39.4908854166667 16.203125  C 39.7504340277778 15.9596354166667  39.9140625 15.8268229166667  39.9817708333333 15.8046875  C 40.0494791666667 15.7604166666667  40.21875 15.7106119791667  40.4895833333333 15.6552734375  C 40.7604166666667 15.5999348958333  40.9296875 15.5169270833333  40.9973958333333 15.40625  L 41.0651041666667 14.67578125  C 40.7942708333333 14.6979166666667  40.5967881944444 14.6204427083333  40.47265625 14.443359375  C 40.3485243055556 14.2662760416667  40.2751736111111 14.0338541666667  40.2526041666667 13.74609375  C 40.2526041666667 13.7903645833333  40.1848958333333 13.87890625  40.0494791666667 14.01171875  C 40.0494791666667 13.8567708333333  39.9986979166667 13.7682291666667  39.8971354166667 13.74609375  C 39.7955729166667 13.7239583333333  39.6657986111111 13.7350260416667  39.5078125 13.779296875  C 39.3498263888889 13.8235677083333  39.2482638888889 13.8346354166667  39.203125 13.8125  C 38.9774305555556 13.74609375  38.8081597222222 13.6630859375  38.6953125 13.5634765625  C 38.5824652777778 13.4638671875  38.4921875 13.28125  38.4244791666667 13.015625  C 38.3567708333333 12.75  38.3116319444444 12.583984375  38.2890625 12.517578125  C 38.2439236111111 12.4069010416667  38.13671875 12.28515625  37.9674479166667 12.15234375  C 37.7981770833333 12.01953125  37.6909722222222 11.9088541666667  37.6458333333333 11.8203125  C 37.6232638888889 11.7760416666667  37.5950520833333 11.7151692708333  37.5611979166667 11.6376953125  C 37.52734375 11.5602213541667  37.4934895833333 11.48828125  37.4596354166667 11.421875  C 37.42578125 11.35546875  37.3806423611111 11.2945963541667  37.32421875 11.2392578125  C 37.2677951388889 11.1839192708333  37.2057291666667 11.15625  37.1380208333333 11.15625  C 37.0703125 11.15625  36.9913194444444 11.2115885416667  36.9010416666667 11.322265625  C 36.8107638888889 11.4329427083333  36.7261284722222 11.5436197916667  36.6471354166667 11.654296875  C 36.5681423611111 11.7649739583333  36.5173611111111 11.8203125  36.4947916666667 11.8203125  C 36.4270833333333 11.7760416666667  36.359375 11.7594401041667  36.2916666666667 11.7705078125  C 36.2239583333333 11.7815755208333  36.1731770833333 11.7926432291667  36.1393229166667 11.8037109375  C 36.10546875 11.8147786458333  36.0546875 11.8479817708333  35.9869791666667 11.9033203125  C 35.9192708333333 11.9586588541667  35.8628472222222 11.9973958333333  35.8177083333333 12.01953125  C 35.75 12.0638020833333  35.6540798611111 12.0970052083333  35.5299479166667 12.119140625  C 35.4058159722222 12.1412760416667  35.3098958333333 12.1634114583333  35.2421875 12.185546875  C 35.5807291666667 12.0748697916667  35.5694444444444 11.953125  35.2083333333333 11.8203125  C 34.9826388888889 11.7317708333333  34.8020833333333 11.6985677083333  34.6666666666667 11.720703125  C 34.8697916666667 11.6321614583333  34.9544270833333 11.4993489583333  34.9205729166667 11.322265625  C 34.88671875 11.1451822916667  34.7907986111111 10.990234375  34.6328125 10.857421875  L 34.8020833333333 10.857421875  C 34.7795138888889 10.7688802083333  34.68359375 10.6748046875  34.5143229166667 10.5751953125  C 34.3450520833333 10.4755859375  34.1475694444444 10.3815104166667  33.921875 10.29296875  C 33.6961805555556 10.2044270833333  33.5494791666667 10.1380208333333  33.4817708333333 10.09375  C 33.3012152777778 9.98307291666666  32.9175347222222 9.8779296875  32.3307291666667 9.7783203125  C 31.7439236111111 9.6787109375  31.3715277777778 9.67317708333333  31.2135416666667 9.76171875  C 31.1006944444444 9.89453125  31.0499131944444 10.0107421875  31.0611979166667 10.1103515625  C 31.0724826388889 10.2099609375  31.1176215277778 10.3649088541667  31.1966145833333 10.5751953125  C 31.2756076388889 10.7854817708333  31.3151041666667 10.923828125  31.3151041666667 10.990234375  C 31.3376736111111 11.123046875  31.2756076388889 11.2669270833333  31.12890625 11.421875  C 30.9822048611111 11.5768229166667  30.9088541666667 11.7096354166667  30.9088541666667 11.8203125  C 30.9088541666667 11.9752604166667  31.0668402777778 12.1468098958333  31.3828125 12.3349609375  C 31.6987847222222 12.5231119791667  31.8116319444444 12.7610677083333  31.7213541666667 13.048828125  C 31.6536458333333 13.2259114583333  31.4730902777778 13.4029947916667  31.1796875 13.580078125  C 30.8862847222222 13.7571614583333  30.7057291666667 13.8899739583333  30.6380208333333 13.978515625  C 30.5251736111111 14.1555989583333  30.5082465277778 14.3603515625  30.5872395833333 14.5927734375  C 30.6662326388889 14.8251953125  30.7847222222222 15.0078125  30.9427083333333 15.140625  C 30.9878472222222 15.1848958333333  31.0047743055556 15.2291666666667  30.9934895833333 15.2734375  C 30.9822048611111 15.3177083333333  30.9427083333333 15.3675130208333  30.875 15.4228515625  C 30.8072916666667 15.4781901041667  30.7452256944444 15.5224609375  30.6888020833333 15.5556640625  C 30.6323784722222 15.5888671875  30.5590277777778 15.6276041666667  30.46875 15.671875  L 30.3671875 15.73828125  C 30.1189236111111 15.8489583333333  29.8875868055556 15.7825520833333  29.6731770833333 15.5390625  C 29.4587673611111 15.2955729166667  29.3064236111111 15.0078125  29.2161458333333 14.67578125  C 29.0581597222222 14.1223958333333  28.8776041666667 13.7903645833333  28.6744791666667 13.6796875  C 28.1553819444444 13.5026041666667  27.828125 13.513671875  27.6927083333333 13.712890625  C 27.5798611111111 13.4251302083333  27.1171875 13.1373697916667  26.3046875 12.849609375  C 25.7404513888889 12.650390625  25.0859375 12.6061197916667  24.3411458333333 12.716796875  C 24.4765625 12.6946614583333  24.4765625 12.5286458333333  24.3411458333333 12.21875  C 24.1831597222222 11.88671875  23.96875 11.75390625  23.6979166666667 11.8203125  C 23.765625 11.6875  23.8107638888889 11.4938151041667  23.8333333333333 11.2392578125  C 23.8559027777778 10.9847005208333  23.8671875 10.8352864583333  23.8671875 10.791015625  C 23.9348958333333 10.5032552083333  24.0703125 10.2486979166667  24.2734375 10.02734375  C 24.2960069444444 10.0052083333333  24.375 9.9111328125  24.5104166666667 9.7451171875  C 24.6458333333333 9.5791015625  24.7530381944444 9.4296875  24.83203125 9.296875  C 24.9110243055556 9.1640625  24.9166666666667 9.09765625  24.8489583333333 9.09765625  C 25.6388888888889 9.18619791666666  26.203125 9.064453125  26.5416666666667 8.732421875  C 26.6545138888889 8.62174479166666  26.7842881944444 8.43359375  26.9309895833333 8.16796875  C 27.0776909722222 7.90234375  27.1961805555556 7.71419270833333  27.2864583333333 7.603515625  C 27.4895833333333 7.470703125  27.6475694444444 7.40983072916666  27.7604166666667 7.4208984375  C 27.8732638888889 7.43196614583333  28.0368923611111 7.49283854166666  28.2513020833333 7.603515625  C 28.4657118055556 7.71419270833333  28.6293402777778 7.76953125  28.7421875 7.76953125  C 29.0581597222222 7.79166666666666  29.2330729166667 7.669921875  29.2669270833333 7.404296875  C 29.30078125 7.138671875  29.2161458333333 6.91731770833333  29.0130208333333 6.740234375  C 29.2838541666667 6.76236979166666  29.3177083333333 6.57421875  29.1145833333333 6.17578125  C 29.0243055555556 6.02083333333333  28.9340277777778 5.92122395833333  28.84375 5.876953125  C 28.5729166666667 5.78841145833333  28.2682291666667 5.84375  27.9296875 6.04296875  C 27.7491319444444 6.13151041666666  27.7717013888889 6.22005208333333  27.9973958333333 6.30859375  C 27.9748263888889 6.28645833333333  27.8676215277778 6.40266927083333  27.67578125 6.6572265625  C 27.4839409722222 6.91178385416666  27.2977430555556 7.10546875  27.1171875 7.23828125  C 26.9366319444444 7.37109375  26.7560763888889 7.31575520833333  26.5755208333333 7.072265625  C 26.5529513888889 7.05013020833333  26.4908854166667 6.90071614583333  26.3893229166667 6.6240234375  C 26.2877604166667 6.34733072916666  26.1805555555556 6.19791666666666  26.0677083333333 6.17578125  C 25.8871527777778 6.17578125  25.7065972222222 6.341796875  25.5260416666667 6.673828125  C 25.59375 6.49674479166666  25.4696180555556 6.33072916666666  25.1536458333333 6.17578125  C 24.8376736111111 6.02083333333333  24.5668402777778 5.93229166666666  24.3411458333333 5.91015625  C 24.7699652777778 5.64453125  24.6796875 5.345703125  24.0703125 5.013671875  C 23.9123263888889 4.92513020833333  23.6809895833333 4.86979166666666  23.3763020833333 4.84765625  C 23.0716145833333 4.82552083333333  22.8515625 4.86979166666666  22.7161458333333 4.98046875  C 22.6032986111111 5.13541666666666  22.5412326388889 5.2626953125  22.5299479166667 5.3623046875  C 22.5186631944444 5.4619140625  22.5750868055556 5.55045572916666  22.69921875 5.6279296875  C 22.8233506944444 5.70540364583333  22.9418402777778 5.76627604166666  23.0546875 5.810546875  C 23.1675347222222 5.85481770833333  23.2973090277778 5.89908854166666  23.4440104166667 5.943359375  C 23.5907118055556 5.98763020833333  23.6866319444444 6.02083333333333  23.7317708333333 6.04296875  C 24.0477430555556 6.26432291666666  24.1380208333333 6.41927083333333  24.0026041666667 6.5078125  C 23.9574652777778 6.52994791666666  23.8615451388889 6.56868489583333  23.71484375 6.6240234375  C 23.5681423611111 6.67936197916666  23.4383680555556 6.72916666666666  23.3255208333333 6.7734375  C 23.2126736111111 6.81770833333333  23.1449652777778 6.86197916666666  23.1223958333333 6.90625  C 23.0546875 6.99479166666666  23.0546875 7.14973958333333  23.1223958333333 7.37109375  C 23.1901041666667 7.59244791666666  23.1675347222222 7.74739583333333  23.0546875 7.8359375  C 22.9418402777778 7.72526041666666  22.8402777777778 7.53157552083333  22.75 7.2548828125  C 22.6597222222222 6.97819010416666  22.5807291666667 6.79557291666666  22.5130208333333 6.70703125  C 22.6710069444444 6.90625  22.3888888888889 6.97265625  21.6666666666667 6.90625  L 21.328125 6.873046875  C 21.2378472222222 6.873046875  21.0572916666667 6.89518229166666  20.7864583333333 6.939453125  C 20.515625 6.98372395833333  20.2842881944444 6.99479166666666  20.0924479166667 6.97265625  C 19.9006076388889 6.95052083333333  19.7482638888889 6.86197916666666  19.6354166666667 6.70703125  C 19.5451388888889 6.52994791666666  19.5451388888889 6.30859375  19.6354166666667 6.04296875  C 19.6579861111111 5.95442708333333  19.703125 5.93229166666666  19.7708333333333 5.9765625  C 19.6805555555556 5.91015625  19.5564236111111 5.80501302083333  19.3984375 5.6611328125  C 19.2404513888889 5.51725260416666  19.1276041666667 5.42317708333333  19.0598958333333 5.37890625  C 18.0217013888889 5.7109375  16.9609375 6.16471354166666  15.8776041666667 6.740234375  C 16.0130208333333 6.76236979166666  16.1484375 6.75130208333333  16.2838541666667 6.70703125  C 16.3967013888889 6.66276041666666  16.5434027777778 6.5908203125  16.7239583333333 6.4912109375  C 16.9045138888889 6.3916015625  17.0173611111111 6.33072916666666  17.0625 6.30859375  C 17.8298611111111 5.99869791666666  18.3038194444444 5.92122395833333  18.484375 6.076171875  L 18.6536458333333 5.91015625  C 18.9696180555556 6.26432291666666  19.1953125 6.541015625  19.3307291666667 6.740234375  C 19.1727430555556 6.65169270833333  18.8342013888889 6.640625  18.3151041666667 6.70703125  C 17.8637152777778 6.83984375  17.6154513888889 6.97265625  17.5703125 7.10546875  C 17.7282986111111 7.37109375  17.7847222222222 7.5703125  17.7395833333333 7.703125  C 17.6493055555556 7.63671875  17.51953125 7.52604166666666  17.3502604166667 7.37109375  C 17.1809895833333 7.21614583333333  17.0173611111111 7.09440104166666  16.859375 7.005859375  C 16.7013888888889 6.91731770833333  16.5321180555556 6.86197916666666  16.3515625 6.83984375  C 15.9904513888889 6.83984375  15.7421875 6.85091145833333  15.6067708333333 6.873046875  C 12.3116319444444 8.64388020833333  9.65972222222222 11.1009114583333  7.65104166666667 14.244140625  C 7.80902777777778 14.3990885416667  7.94444444444444 14.4876302083333  8.05729166666667 14.509765625  C 8.14756944444444 14.5319010416667  8.20399305555556 14.6315104166667  8.2265625 14.80859375  C 8.24913194444444 14.9856770833333  8.27734375 15.107421875  8.31119791666667 15.173828125  C 8.34505208333333 15.240234375  8.47482638888889 15.20703125  8.70052083333333 15.07421875  C 8.90364583333333 15.2513020833333  8.9375 15.4615885416667  8.80208333333333 15.705078125  C 8.82465277777778 15.6829427083333  9.32118055555556 15.9817708333333  10.2916666666667 16.6015625  C 10.7204861111111 16.9778645833333  10.9574652777778 17.2102864583333  11.0026041666667 17.298828125  C 11.0703125 17.5423177083333  10.9574652777778 17.7415364583333  10.6640625 17.896484375  C 10.6414930555556 17.8522135416667  10.5399305555556 17.7526041666667  10.359375 17.59765625  C 10.1788194444444 17.4427083333333  10.0772569444444 17.3984375  10.0546875 17.46484375  C 9.98697916666667 17.5755208333333  9.99262152777778 17.7802734375  10.0716145833333 18.0791015625  C 10.1506076388889 18.3779296875  10.2690972222222 18.5162760416667  10.4270833333333 18.494140625  C 10.2690972222222 18.494140625  10.1618923611111 18.6712239583333  10.10546875 19.025390625  C 10.0490451388889 19.3795572916667  10.0208333333333 19.7724609375  10.0208333333333 20.2041015625  C 10.0208333333333 20.6357421875  10.0095486111111 20.8958333333333  9.98697916666667 20.984375  L 10.0546875 21.017578125  C 9.98697916666667 21.283203125  10.0490451388889 21.6650390625  10.2408854166667 22.1630859375  C 10.4327256944444 22.6611328125  10.6753472222222 22.876953125  10.96875 22.810546875  C 10.6753472222222 22.876953125  10.9010416666667 23.3528645833333  11.6458333333333 24.23828125  C 11.78125 24.4153645833333  11.8715277777778 24.5149739583333  11.9166666666667 24.537109375  C 11.984375 24.5813802083333  12.1197916666667 24.6643880208333  12.3229166666667 24.7861328125  C 12.5260416666667 24.9078776041667  12.6953125 25.0185546875  12.8307291666667 25.1181640625  C 12.9661458333333 25.2177734375  13.0789930555556 25.333984375  13.1692708333333 25.466796875  C 13.2595486111111 25.5774739583333  13.3723958333333 25.8264973958333  13.5078125 26.2138671875  C 13.6432291666667 26.6012369791667  13.8012152777778 26.861328125  13.9817708333333 26.994140625  C 13.9366319444444 27.126953125  14.0438368055556 27.3483072916667  14.3033854166667 27.658203125  C 14.5629340277778 27.9680989583333  14.6814236111111 28.22265625  14.6588541666667 28.421875  C 14.6362847222222 28.421875  14.6080729166667 28.4329427083333  14.57421875 28.455078125  C 14.5403645833333 28.4772135416667  14.5121527777778 28.48828125  14.4895833333333 28.48828125  C 14.5572916666667 28.6432291666667  14.7322048611111 28.7981770833333  15.0143229166667 28.953125  C 15.2964409722222 29.1080729166667  15.4713541666667 29.251953125  15.5390625 29.384765625  C 15.5616319444444 29.451171875  15.5842013888889 29.5618489583333  15.6067708333333 29.716796875  C 15.6293402777778 29.8717447916667  15.6631944444444 29.9934895833333  15.7083333333333 30.08203125  C 15.7534722222222 30.1705729166667  15.84375 30.1927083333333  15.9791666666667 30.1484375  C 16.0243055555556 29.7057291666667  15.7534722222222 29.01953125  15.1666666666667 28.08984375  C 14.828125 27.5364583333333  14.6362847222222 27.2154947916667  14.5911458333333 27.126953125  C 14.5234375 27.0162760416667  14.4613715277778 26.8447265625  14.4049479166667 26.6123046875  C 14.3485243055556 26.3798828125  14.2977430555556 26.2194010416667  14.2526041666667 26.130859375  C 14.2977430555556 26.130859375  14.3654513888889 26.1474609375  14.4557291666667 26.1806640625  C 14.5460069444444 26.2138671875  14.6419270833333 26.2526041666667  14.7434895833333 26.296875  C 14.8450520833333 26.3411458333333  14.9296875 26.3854166666667  14.9973958333333 26.4296875  C 15.0651041666667 26.4739583333333  15.0876736111111 26.5071614583333  15.0651041666667 26.529296875  C 14.9973958333333 26.6842447916667  15.0199652777778 26.8779296875  15.1328125 27.1103515625  C 15.2456597222222 27.3427734375  15.3810763888889 27.5475260416667  15.5390625 27.724609375  C 15.6970486111111 27.9016927083333  15.8888888888889 28.1119791666667  16.1145833333333 28.35546875  C 16.3402777777778 28.5989583333333  16.4756944444444 28.7428385416667  16.5208333333333 28.787109375  C 16.65625 28.919921875  16.8142361111111 29.1357421875  16.9947916666667 29.4345703125  C 17.1753472222222 29.7333984375  17.1753472222222 29.8828125  16.9947916666667 29.8828125  C 17.1979166666667 29.8828125  17.4236111111111 29.9990234375  17.671875 30.2314453125  C 17.9201388888889 30.4638671875  18.1119791666667 30.6796875  18.2473958333333 30.87890625  C 18.3602430555556 31.0559895833333  18.4505208333333 31.34375  18.5182291666667 31.7421875  C 18.5859375 32.140625  18.6423611111111 32.40625  18.6875 32.5390625  C 18.7326388888889 32.6940104166667  18.8285590277778 32.8434244791667  18.9752604166667 32.9873046875  C 19.1219618055556 33.1311848958333  19.2630208333333 33.236328125  19.3984375 33.302734375  L 19.9401041666667 33.568359375  C 19.9401041666667 33.568359375  20.0868055555556 33.6458333333333  20.3802083333333 33.80078125  C 20.4930555555556 33.8450520833333  20.7018229166667 33.9612630208333  21.0065104166667 34.1494140625  C 21.3111979166667 34.3375651041667  21.5538194444444 34.46484375  21.734375 34.53125  C 21.9600694444444 34.6197916666667  22.140625 34.6640625  22.2760416666667 34.6640625  C 22.4114583333333 34.6640625  22.5750868055556 34.6363932291667  22.7669270833333 34.5810546875  C 22.9587673611111 34.5257161458333  23.1111111111111 34.4869791666667  23.2239583333333 34.46484375  C 23.5625 34.4205729166667  23.8897569444444 34.5865885416667  24.2057291666667 34.962890625  C 24.5217013888889 35.3391927083333  24.7586805555556 35.5716145833333  24.9166666666667 35.66015625  C 25.7291666666667 36.0807291666667  26.3498263888889 36.2024739583333  26.7786458333333 36.025390625  C 26.7335069444444 36.0475260416667  26.7391493055556 36.1305338541667  26.7955729166667 36.2744140625  C 26.8519965277778 36.4182942708333  26.9422743055556 36.58984375  27.06640625 36.7890625  C 27.1905381944444 36.98828125  27.2921006944444 37.1487630208333  27.37109375 37.2705078125  C 27.4500868055556 37.3922526041667  27.5121527777778 37.486328125  27.5572916666667 37.552734375  C 27.6701388888889 37.685546875  27.8732638888889 37.8515625  28.1666666666667 38.05078125  C 28.4600694444444 38.25  28.6631944444444 38.416015625  28.7760416666667 38.548828125  C 28.9114583333333 38.4602864583333  28.9904513888889 38.3606770833333  29.0130208333333 38.25  C 28.9453125 38.4270833333333  29.0243055555556 38.6484375  29.25 38.9140625  C 29.4756944444444 39.1796875  29.6788194444444 39.2903645833333  29.859375 39.24609375  C 30.1753472222222 39.1796875  30.3333333333333 38.8255208333333  30.3333333333333 38.18359375  C 29.6336805555556 38.515625  29.0807291666667 38.31640625  28.6744791666667 37.5859375  C 28.6744791666667 37.5638020833333  28.6462673611111 37.5029296875  28.58984375 37.4033203125  C 28.5334201388889 37.3037109375  28.48828125 37.2096354166667  28.4544270833333 37.12109375  C 28.4205729166667 37.0325520833333  28.3923611111111 36.9384765625  28.3697916666667 36.8388671875  C 28.3472222222222 36.7392578125  28.3472222222222 36.65625  28.3697916666667 36.58984375  C 28.3923611111111 36.5234375  28.4487847222222 36.490234375  28.5390625 36.490234375  C 28.7421875 36.490234375  28.8550347222222 36.4514973958333  28.8776041666667 36.3740234375  C 28.9001736111111 36.2965494791667  28.8776041666667 36.158203125  28.8098958333333 35.958984375  C 28.7421875 35.759765625  28.6970486111111 35.6158854166667  28.6744791666667 35.52734375  C 28.6519097222222 35.3502604166667  28.5277777777778 35.12890625  28.3020833333333 34.86328125  C 28.0763888888889 34.59765625  27.9409722222222 34.431640625  27.8958333333333 34.365234375  C 27.7829861111111 34.564453125  27.6024305555556 34.6529947916667  27.3541666666667 34.630859375  C 27.1059027777778 34.6087239583333  26.9253472222222 34.5091145833333  26.8125 34.33203125  C 26.8125 34.3541666666667  26.7955729166667 34.4150390625  26.76171875 34.5146484375  C 26.7278645833333 34.6142578125  26.7109375 34.6861979166667  26.7109375 34.73046875  C 26.4175347222222 34.73046875  26.2482638888889 34.7194010416667  26.203125 34.697265625  C 26.2256944444444 34.630859375  26.25390625 34.4371744791667  26.2877604166667 34.1162109375  C 26.3216145833333 33.7952473958333  26.3611111111111 33.5462239583333  26.40625 33.369140625  C 26.4288194444444 33.2805989583333  26.4908854166667 33.1477864583333  26.5924479166667 32.970703125  C 26.6940104166667 32.7936197916667  26.7786458333333 32.6331380208333  26.8463541666667 32.4892578125  C 26.9140625 32.3453776041667  26.9592013888889 32.20703125  26.9817708333333 32.07421875  C 27.0043402777778 31.94140625  26.9535590277778 31.8362630208333  26.8294270833333 31.7587890625  C 26.7052951388889 31.6813151041667  26.5078125 31.6536458333333  26.2369791666667 31.67578125  C 25.8081597222222 31.6979166666667  25.5147569444444 31.9192708333333  25.3567708333333 32.33984375  C 25.3342013888889 32.40625  25.3003472222222 32.5224609375  25.2552083333333 32.6884765625  C 25.2100694444444 32.8544921875  25.1536458333333 32.9817708333333  25.0859375 33.0703125  C 25.0182291666667 33.1588541666667  24.9166666666667 33.236328125  24.78125 33.302734375  C 24.6232638888889 33.369140625  24.3524305555556 33.3912760416667  23.96875 33.369140625  C 23.5850694444444 33.3470052083333  23.3142361111111 33.2916666666667  23.15625 33.203125  C 22.8628472222222 33.0260416666667  22.6089409722222 32.705078125  22.39453125 32.240234375  C 22.1801215277778 31.775390625  22.0729166666667 31.3658854166667  22.0729166666667 31.01171875  C 22.0729166666667 30.7903645833333  22.1011284722222 30.4970703125  22.1575520833333 30.1318359375  C 22.2139756944444 29.7666015625  22.2478298611111 29.4899088541667  22.2591145833333 29.3017578125  C 22.2703993055556 29.1136067708333  22.2083333333333 28.8424479166667  22.0729166666667 28.48828125  C 22.140625 28.4440104166667  22.2421875 28.3388671875  22.3776041666667 28.1728515625  C 22.5130208333333 28.0068359375  22.6258680555556 27.890625  22.7161458333333 27.82421875  C 22.7612847222222 27.8020833333333  22.8120659722222 27.7854817708333  22.8684895833333 27.7744140625  C 22.9249131944444 27.7633463541667  22.9756944444444 27.7633463541667  23.0208333333333 27.7744140625  C 23.0659722222222 27.7854817708333  23.1111111111111 27.7688802083333  23.15625 27.724609375  C 23.2013888888889 27.6803385416667  23.2352430555556 27.6139322916667  23.2578125 27.525390625  C 23.2352430555556 27.5032552083333  23.1901041666667 27.4700520833333  23.1223958333333 27.42578125  C 23.0546875 27.359375  23.0095486111111 27.326171875  22.9869791666667 27.326171875  C 23.1449652777778 27.392578125  23.4665798611111 27.3759765625  23.9518229166667 27.2763671875  C 24.4370659722222 27.1767578125  24.7473958333333 27.193359375  24.8828125 27.326171875  C 25.2213541666667 27.5696614583333  25.4696180555556 27.5475260416667  25.6276041666667 27.259765625  C 25.6276041666667 27.2376302083333  25.5993923611111 27.1324869791667  25.54296875 26.9443359375  C 25.4865451388889 26.7561848958333  25.4809027777778 26.6067708333333  25.5260416666667 26.49609375  C 25.6388888888889 27.09375  25.9661458333333 27.193359375  26.5078125 26.794921875  C 26.5755208333333 26.861328125  26.7504340277778 26.9166666666667  27.0325520833333 26.9609375  C 27.3146701388889 27.0052083333333  27.5121527777778 27.060546875  27.625 27.126953125  C 27.6927083333333 27.1712239583333  27.7717013888889 27.2320963541667  27.8619791666667 27.3095703125  C 27.9522569444444 27.3870442708333  28.0143229166667 27.4368489583333  28.0481770833333 27.458984375  C 28.08203125 27.4811197916667  28.1384548611111 27.4755859375  28.2174479166667 27.4423828125  C 28.2964409722222 27.4091796875  28.3923611111111 27.3372395833333  28.5052083333333 27.2265625  C 28.7309027777778 27.5364583333333  28.8663194444444 27.8020833333333  28.9114583333333 28.0234375  C 29.1597222222222 28.9088541666667  29.3741319444444 29.3958333333333  29.5546875 29.484375  C 29.7126736111111 29.55078125  29.8368055555556 29.5729166666667  29.9270833333333 29.55078125  C 30.0173611111111 29.5286458333333  30.0681423611111 29.4235026041667  30.0794270833333 29.2353515625  C 30.0907118055556 29.0472005208333  30.0907118055556 28.8922526041667  30.0794270833333 28.7705078125  C 30.0681423611111 28.6487630208333  30.0512152777778 28.5104166666667  30.0286458333333 28.35546875  L 29.9947916666667 28.08984375  L 29.9947916666667 27.4921875  L 29.9609375 27.2265625  C 29.6223958333333 27.16015625  29.4136284722222 27.02734375  29.3346354166667 26.828125  C 29.2556423611111 26.62890625  29.2725694444444 26.4241536458333  29.3854166666667 26.2138671875  C 29.4982638888889 26.0035807291667  29.6675347222222 25.798828125  29.8932291666667 25.599609375  C 29.9157986111111 25.5774739583333  30.0060763888889 25.5387369791667  30.1640625 25.4833984375  C 30.3220486111111 25.4280598958333  30.4969618055556 25.3561197916667  30.6888020833333 25.267578125  C 30.8806423611111 25.1790364583333  31.0217013888889 25.0904947916667  31.1119791666667 25.001953125  C 31.5859375 24.5813802083333  31.7552083333333 24.1940104166667  31.6197916666667 23.83984375  C 31.7777777777778 23.83984375  31.9019097222222 23.740234375  31.9921875 23.541015625  C 31.9696180555556 23.541015625  31.9131944444444 23.5078125  31.8229166666667 23.44140625  C 31.7326388888889 23.375  31.6480034722222 23.3196614583333  31.5690104166667 23.275390625  C 31.4900173611111 23.2311197916667  31.4392361111111 23.208984375  31.4166666666667 23.208984375  C 31.6197916666667 23.0983072916667  31.6423611111111 22.9212239583333  31.484375 22.677734375  C 31.5972222222222 22.611328125  31.6818576388889 22.4895833333333  31.73828125 22.3125  C 31.7947048611111 22.1354166666667  31.8793402777778 22.0247395833333  31.9921875 21.98046875  C 32.1953125 22.24609375  32.4322916666667 22.2682291666667  32.703125 22.046875  C 32.8836805555556 21.8697916666667  32.8949652777778 21.6927083333333  32.7369791666667 21.515625  C 32.8498263888889 21.3606770833333  33.0811631944444 21.2444661458333  33.4309895833333 21.1669921875  C 33.7808159722222 21.0895182291667  33.9895833333333 20.984375  34.0572916666667 20.8515625  C 34.2152777777778 20.8958333333333  34.3055555555556 20.8736979166667  34.328125 20.78515625  C 34.3506944444444 20.6966145833333  34.3619791666667 20.5638020833333  34.3619791666667 20.38671875  C 34.3619791666667 20.2096354166667  34.3958333333333 20.0768229166667  34.4635416666667 19.98828125  C 34.5538194444444 19.8776041666667  34.7230902777778 19.7779947916667  34.9713541666667 19.689453125  C 35.2196180555556 19.6009114583333  35.3663194444444 19.5455729166667  35.4114583333333 19.5234375  L 35.9869791666667 19.158203125  C 36.0546875 19.0696614583333  36.0546875 19.025390625  35.9869791666667 19.025390625  C 36.3932291666667 19.0696614583333  36.7430555555556 18.9479166666667  37.0364583333333 18.66015625  C 37.2621527777778 18.4166666666667  37.1944444444444 18.1953125  36.8333333333333 17.99609375  C 36.9010416666667 17.86328125  36.8671875 17.7581380208333  36.7317708333333 17.6806640625  C 36.5963541666667 17.6031901041667  36.4270833333333 17.5423177083333  36.2239583333333 17.498046875  C 36.2916666666667 17.4759114583333  36.4214409722222 17.4703776041667  36.61328125 17.4814453125  C 36.8051215277778 17.4925130208333  36.9236111111111 17.4759114583333  36.96875 17.431640625  C 37.3072916666667 17.2102864583333  37.2282986111111 17.033203125  36.7317708333333 16.900390625  Z M 29.6901041666667 45.88671875  C 29.6901041666667 46.01953125  29.7126736111111 46.1966145833333  29.7578125 46.41796875  C 34.4071180555556 45.62109375  38.3680555555556 43.529296875  41.640625 40.142578125  C 41.5729166666667 40.076171875  41.4318576388889 40.0263671875  41.2174479166667 39.9931640625  C 41.0030381944444 39.9599609375  40.8619791666667 39.9212239583333  40.7942708333333 39.876953125  C 40.3880208333333 39.7220052083333  40.1171875 39.6334635416667  39.9817708333333 39.611328125  C 40.0043402777778 39.4563802083333  39.9761284722222 39.3125  39.8971354166667 39.1796875  C 39.8181423611111 39.046875  39.7278645833333 38.947265625  39.6263020833333 38.880859375  C 39.5247395833333 38.814453125  39.3836805555556 38.7259114583333  39.203125 38.615234375  C 39.0225694444444 38.5045572916667  38.8984375 38.4270833333333  38.8307291666667 38.3828125  C 38.7855902777778 38.3385416666667  38.7065972222222 38.2721354166667  38.59375 38.18359375  C 38.4809027777778 38.0950520833333  38.4019097222222 38.0341796875  38.3567708333333 38.0009765625  C 38.3116319444444 37.9677734375  38.2269965277778 37.91796875  38.1028645833333 37.8515625  C 37.9787326388889 37.78515625  37.8828125 37.7630208333333  37.8151041666667 37.78515625  C 37.7473958333333 37.8072916666667  37.6345486111111 37.818359375  37.4765625 37.818359375  L 37.375 37.8515625  C 37.3072916666667 37.8736979166667  37.2452256944444 37.9013671875  37.1888020833333 37.9345703125  C 37.1323784722222 37.9677734375  37.0703125 38.0009765625  37.0026041666667 38.0341796875  C 36.9348958333333 38.0673828125  36.8897569444444 38.1005859375  36.8671875 38.1337890625  C 36.8446180555556 38.1669921875  36.8446180555556 38.1946614583333  36.8671875 38.216796875  C 36.3932291666667 37.8404947916667  35.9869791666667 37.5970052083333  35.6484375 37.486328125  C 35.5355902777778 37.4641927083333  35.4114583333333 37.4033203125  35.2760416666667 37.3037109375  C 35.140625 37.2041015625  35.0221354166667 37.1266276041667  34.9205729166667 37.0712890625  C 34.8190104166667 37.0159505208333  34.7061631944444 36.9993489583333  34.58203125 37.021484375  C 34.4578993055556 37.0436197916667  34.328125 37.12109375  34.1927083333333 37.25390625  C 34.0798611111111 37.3645833333333  34.0121527777778 37.5305989583333  33.9895833333333 37.751953125  C 33.9670138888889 37.9733072916667  33.9444444444444 38.1171875  33.921875 38.18359375  C 33.7638888888889 38.0729166666667  33.7638888888889 37.8792317708333  33.921875 37.6025390625  C 34.0798611111111 37.3258463541667  34.1024305555556 37.12109375  33.9895833333333 36.98828125  C 33.921875 36.85546875  33.8033854166667 36.8056640625  33.6341145833333 36.8388671875  C 33.46484375 36.8720703125  33.3294270833333 36.921875  33.2278645833333 36.98828125  C 33.1263020833333 37.0546875  32.9965277777778 37.1487630208333  32.8385416666667 37.2705078125  C 32.6805555555556 37.3922526041667  32.5789930555556 37.4641927083333  32.5338541666667 37.486328125  C 32.4887152777778 37.5084635416667  32.3927951388889 37.5693359375  32.24609375 37.6689453125  C 32.0993923611111 37.7685546875  32.0034722222222 37.8515625  31.9583333333333 37.91796875  C 31.890625 38.0065104166667  31.8229166666667 38.1393229166667  31.7552083333333 38.31640625  C 31.6875 38.4934895833333  31.6310763888889 38.615234375  31.5859375 38.681640625  C 31.5407986111111 38.5930989583333  31.4110243055556 38.5211588541667  31.1966145833333 38.4658203125  C 30.9822048611111 38.4104817708333  30.875 38.349609375  30.875 38.283203125  C 30.9201388888889 38.5045572916667  30.9652777777778 38.8919270833333  31.0104166666667 39.4453125  C 31.0555555555556 39.9986979166667  31.1119791666667 40.4192708333333  31.1796875 40.70703125  C 31.3376736111111 41.3932291666667  31.2022569444444 41.9244791666667  30.7734375 42.30078125  C 30.1640625 42.8541666666667  29.8368055555556 43.296875  29.7916666666667 43.62890625  C 29.7013888888889 44.1158854166667  29.8368055555556 44.4036458333333  30.1979166666667 44.4921875  C 30.1979166666667 44.6471354166667  30.1076388888889 44.8740234375  29.9270833333333 45.1728515625  C 29.7465277777778 45.4716796875  29.6675347222222 45.7096354166667  29.6901041666667 45.88671875  Z " fill-rule="nonzero" fill="#000000" stroke="none" transform="matrix(1 0 0 1 812 115 )" />
  </g>
</svg>